<svg width="362" height="864" fill="none" xmlns="http://www.w3.org/2000/svg"><path d="M174.001.595c-7.471.142-13.79 5.577-15.042 12.942l-57.135 341.948-87.35 11.383a15.555 15.555 0 0 0-12.857 10.55A15.559 15.559 0 0 0 5.64 393.55l116.936 112.463 4.457 233.916a77.79 77.79 0 0 0-14.588 54.966 77.786 77.786 0 0 0 26.731 50.198 77.77 77.77 0 0 0 53.745 18.592 77.77 77.77 0 0 0 52.028-22.954 77.782 77.782 0 0 0 3.445-105.811l-5.031-229.51 114.191-118.732a15.552 15.552 0 0 0 3.315-16.236 15.564 15.564 0 0 0-13.068-9.974l-87.282-7.541-70.978-339.996A15.558 15.558 0 0 0 174.006.584l-.005.01ZM222.95 818.38a46.65 46.65 0 0 1-32.726 14.304 46.65 46.65 0 0 1-33.259-13.018 46.648 46.648 0 0 1-14.307-32.729 46.666 46.666 0 0 1 93.313-1.819 46.654 46.654 0 0 1-13.021 33.262Zm-6.671-105.264-.004-.004a77.761 77.761 0 0 0-58.71 1.808l-3.86-197.953 58.818-1.92 3.756 198.069Zm15.642-343.006a15.557 15.557 0 0 0 13.345 12.835l67.435 5.507-91.76 95.41-75.005 1.462-95.41-91.76 66.718-8.783a15.56 15.56 0 0 0 12.727-13.233l45.307-271.521 56.643 270.083Z" fill="#000"/></svg>