<svg width="25" height="24" fill="none" xmlns="http://www.w3.org/2000/svg"><path d="m24.756 22.275-7.791-7.791A8.919 8.919 0 0 0 18.828 9a8.946 8.946 0 0 0-2.637-6.363A8.934 8.934 0 0 0 9.828 0a8.946 8.946 0 0 0-6.363 2.637A8.928 8.928 0 0 0 .828 9c0 2.403.939 4.665 2.637 6.363A8.928 8.928 0 0 0 9.828 18c2.01 0 3.918-.654 5.48-1.86l7.792 7.788a.245.245 0 0 0 .348 0l1.308-1.305a.247.247 0 0 0 0-.348ZM14.58 13.752a6.684 6.684 0 0 1-4.752 1.968 6.684 6.684 0 0 1-4.752-1.968A6.684 6.684 0 0 1 3.108 9c0-1.794.699-3.483 1.968-4.752A6.684 6.684 0 0 1 9.828 2.28c1.794 0 3.483.696 4.752 1.968A6.684 6.684 0 0 1 16.548 9a6.678 6.678 0 0 1-1.968 4.752Z" fill="#585858"/></svg>