<svg xmlns="http://www.w3.org/2000/svg" viewBox="0 0 512 512" style="enable-background:new 0 0 512 512" xml:space="preserve"><path d="m507.558 248.347-157.783-86.292L263.483 4.272c-2.983-5.475-11.983-5.475-14.967 0l-86.292 157.783L4.442 248.347A8.525 8.525 0 0 0 0 255.834c0 3.121 1.7 5.992 4.442 7.488l157.783 86.292 86.292 157.783a8.522 8.522 0 0 0 7.483 4.437c3.117 0 5.992-1.7 7.483-4.437l86.292-157.783 157.783-86.292a8.525 8.525 0 0 0 4.442-7.488c0-3.12-1.7-5.991-4.442-7.487zM339.4 335.839a8.542 8.542 0 0 0-3.392 3.392L256 485.518 175.992 339.23a8.542 8.542 0 0 0-3.392-3.392L26.317 255.834 172.6 175.83a8.542 8.542 0 0 0 3.392-3.392L256 26.151l80.008 146.287a8.542 8.542 0 0 0 3.392 3.392l146.283 80.004L339.4 335.839z"/><path d="M256 213.168c-23.525 0-42.667 19.142-42.667 42.667 0 23.525 19.142 42.667 42.667 42.667 23.525 0 42.667-19.142 42.667-42.667 0-23.526-19.142-42.667-42.667-42.667zm0 68.266c-14.117 0-25.6-11.483-25.6-25.6 0-14.116 11.483-25.6 25.6-25.6s25.6 11.484 25.6 25.6c0 14.117-11.483 25.6-25.6 25.6z"/></svg>
